<svg xmlns="http://www.w3.org/2000/svg" viewBox="0 0 920 200" role="img" aria-label="HU Book, web book to PDF">
  <defs>
    <linearGradient id="banner-bg" x1="0%" y1="0%" x2="100%" y2="100%">
      <stop offset="0%" stop-color="#5a3d8a"/>
      <stop offset="55%" stop-color="#3d2a5c"/>
      <stop offset="100%" stop-color="#2a1a42"/>
    </linearGradient>
    <linearGradient id="banner-pageL" x1="0%" y1="0%" x2="0%" y2="100%">
      <stop offset="0%" stop-color="#faf7ff"/>
      <stop offset="100%" stop-color="#e8dff7"/>
    </linearGradient>
    <linearGradient id="banner-pageR" x1="0%" y1="0%" x2="0%" y2="100%">
      <stop offset="0%" stop-color="#f5f0ff"/>
      <stop offset="100%" stop-color="#ddd0f0"/>
    </linearGradient>
  </defs>
  <rect width="920" height="200" rx="20" fill="url(#banner-bg)"/>
  <g transform="translate(48,36)">
    <path d="M56 20 L56 112" stroke="#b89ee0" stroke-width="4" stroke-linecap="round"/>
    <path d="M56 26 C32 20 8 30 2 52 L2 118 C10 108 32 100 56 104 L56 26 Z" fill="url(#banner-pageL)" stroke="#9b7bc9" stroke-width="2"/>
    <path d="M56 26 C80 20 104 30 110 52 L110 118 C102 108 80 100 56 104 L56 26 Z" fill="url(#banner-pageR)" stroke="#9b7bc9" stroke-width="2"/>
    <line x1="18" y1="58" x2="46" y2="58" stroke="#7c5fb8" stroke-width="3" stroke-linecap="round"/>
    <line x1="18" y1="72" x2="42" y2="72" stroke="#a890d4" stroke-width="2.5" stroke-linecap="round"/>
    <line x1="66" y1="58" x2="94" y2="58" stroke="#7c5fb8" stroke-width="3" stroke-linecap="round"/>
    <line x1="70" y1="72" x2="98" y2="72" stroke="#a890d4" stroke-width="2.5" stroke-linecap="round"/>
  </g>
  <text x="200" y="95" font-family="Georgia, &apos;Times New Roman&apos;, serif" font-size="52" font-weight="700" fill="#f8f4ff" letter-spacing="1">HU Book</text>
  <text x="202" y="138" font-family="system-ui, &apos;Segoe UI&apos;, sans-serif" font-size="22" fill="#c9b8e8" letter-spacing="0.5">Web-hosted EPUB-style books &#8594; one PDF</text>
</svg>
